# xmcd
#
# Track frame offsets: 
#        150
#        14900
#        21582
#        74275
#        91360
#        105562
#        111080
#        125285
#
# Disc length: 2050 seconds
#
# Revision: 0
# Processed by: cddbd v1.5.2PL0 Copyright (c) Steve Scherf et al.
# Submitted via: ExactAudioCopy v1.0b1
#
DISCID=6b080008
DTITLE=Dug Dug's  - Smog
DYEAR=1972
DGENRE=Progressive Rock
TTITLE0=Smog
TTITLE1=Buscalo
TTITLE2=Hagamoslo ahora
TTITLE3=Yo no se
TTITLE4=Cual es tu Nombre
TTITLE5=Meditacion
TTITLE6=No Somos Malos
TTITLE7=Voy Hacia el Cielo (Voy Hacia el Sol)
EXTD=
EXTT0=
EXTT1=
EXTT2=
EXTT3=
EXTT4=
EXTT5=
EXTT6=
EXTT7=
PLAYORDER=
